<?xml version="1.0" encoding="UTF-8"?>
<svg version="1.1" xmlns="http://www.w3.org/2000/svg" width="60" height="50">
<path d="M0 0 C0.83096191 -0.00945648 1.66192383 -0.01891296 2.51806641 -0.02865601 C3.41187012 -0.02258331 4.30567383 -0.01651062 5.2265625 -0.01025391 C6.14743652 -0.01312408 7.06831055 -0.01599426 8.01708984 -0.01895142 C9.96387344 -0.02099272 11.91067752 -0.01545824 13.85742188 -0.00292969 C16.84030949 0.01312303 19.82184211 -0.00277613 22.8046875 -0.02197266 C24.6953155 -0.01999024 26.58594265 -0.01614659 28.4765625 -0.01025391 C29.37036621 -0.0163266 30.26416992 -0.02239929 31.18505859 -0.02865601 C32.43150146 -0.01447128 32.43150146 -0.01447128 33.703125 0 C34.79874756 0.00358017 34.79874756 0.00358017 35.91650391 0.00723267 C38.40909117 0.49794309 39.30814015 1.40581965 40.8515625 3.38818359 C41.14453125 5.64990234 41.14453125 5.64990234 41.0390625 8.07568359 C40.99845703 9.28804687 40.99845703 9.28804687 40.95703125 10.52490234 C40.90482422 11.44722656 40.90482422 11.44722656 40.8515625 12.38818359 C42.1715625 13.04818359 43.4915625 13.70818359 44.8515625 14.38818359 C45.04986508 21.09742104 45.11282332 26.98127792 42.8515625 33.38818359 C42.46836259 34.69831301 42.09325258 36.01083773 41.7265625 37.32568359 C41.4378125 38.33630859 41.1490625 39.34693359 40.8515625 40.38818359 C38.5415625 40.38818359 36.2315625 40.38818359 33.8515625 40.38818359 C33.8515625 38.73818359 33.8515625 37.08818359 33.8515625 35.38818359 C22.6315625 35.38818359 11.4115625 35.38818359 -0.1484375 35.38818359 C-0.1484375 37.03818359 -0.1484375 38.68818359 -0.1484375 40.38818359 C-2.4584375 40.38818359 -4.7684375 40.38818359 -7.1484375 40.38818359 C-7.0865625 39.48068359 -7.0246875 38.57318359 -6.9609375 37.63818359 C-7.17393834 33.94616903 -7.95032131 33.20177232 -10.1484375 30.38818359 C-11.52135294 25.14614281 -11.24413348 19.76842416 -11.1484375 14.38818359 C-10.4884375 14.38818359 -9.8284375 14.38818359 -9.1484375 14.38818359 C-9.1484375 13.72818359 -9.1484375 13.06818359 -9.1484375 12.38818359 C-8.4884375 12.38818359 -7.8284375 12.38818359 -7.1484375 12.38818359 C-7.18324219 11.77330078 -7.21804688 11.15841797 -7.25390625 10.52490234 C-7.28097656 9.71666016 -7.30804688 8.90841797 -7.3359375 8.07568359 C-7.38814453 6.87492188 -7.38814453 6.87492188 -7.44140625 5.64990234 C-6.86715361 1.21667196 -4.17455404 0.0136412 0 0 Z M-4.1484375 4.38818359 C-4.56536603 7.80418953 -4.56536603 7.80418953 -4.1484375 11.38818359 C-2.28477516 13.18207519 -2.28477516 13.18207519 -0.1484375 14.38818359 C0.1815625 15.37818359 0.5115625 16.36818359 0.8515625 17.38818359 C5.8015625 17.38818359 10.7515625 17.38818359 15.8515625 17.38818359 C15.8721875 15.26380859 15.8928125 13.13943359 15.9140625 10.95068359 C15.92566406 9.75572266 15.93726562 8.56076172 15.94921875 7.32958984 C16.19058042 4.49945018 16.19058042 4.49945018 14.8515625 3.38818359 C13.52112625 3.28981149 12.18562906 3.25739767 10.8515625 3.25537109 C10.0471875 3.25408203 9.2428125 3.25279297 8.4140625 3.25146484 C7.5684375 3.25533203 6.7228125 3.25919922 5.8515625 3.26318359 C5.0059375 3.25931641 4.1603125 3.25544922 3.2890625 3.25146484 C2.4846875 3.25275391 1.6803125 3.25404297 0.8515625 3.25537109 C-0.2621875 3.25706299 -0.2621875 3.25706299 -1.3984375 3.25878906 C-3.17669561 3.19876144 -3.17669561 3.19876144 -4.1484375 4.38818359 Z M18.8515625 3.38818359 C18.8515625 8.00818359 18.8515625 12.62818359 18.8515625 17.38818359 C23.4715625 17.38818359 28.0915625 17.38818359 32.8515625 17.38818359 C33.5115625 16.06818359 34.1715625 14.74818359 34.8515625 13.38818359 C35.8415625 12.72818359 36.8315625 12.06818359 37.8515625 11.38818359 C37.8515625 8.74818359 37.8515625 6.10818359 37.8515625 3.38818359 C31.5815625 3.38818359 25.3115625 3.38818359 18.8515625 3.38818359 Z M-6.1484375 14.38818359 C-8.52235742 16.29243528 -8.52235742 16.29243528 -8.16015625 19.57568359 C-8.05316406 20.83380859 -7.94617188 22.09193359 -7.8359375 23.38818359 C-7.73667969 24.64630859 -7.63742188 25.90443359 -7.53515625 27.20068359 C-7.3428764 30.27949997 -7.3428764 30.27949997 -6.1484375 32.38818359 C9.0315625 32.38818359 24.2115625 32.38818359 39.8515625 32.38818359 C41.31649319 29.45832221 41.24306743 26.64377199 41.4765625 23.38818359 C41.57195313 22.13005859 41.66734375 20.87193359 41.765625 19.57568359 C42.0992751 16.49097808 42.0992751 16.49097808 40.8515625 14.38818359 C39.2015625 14.71818359 37.5515625 15.04818359 35.8515625 15.38818359 C35.8515625 18.68818359 35.8515625 21.98818359 35.8515625 25.38818359 C23.3115625 25.38818359 10.7715625 25.38818359 -2.1484375 25.38818359 C-2.1484375 22.08818359 -2.1484375 18.78818359 -2.1484375 15.38818359 C-3.4684375 15.05818359 -4.7884375 14.72818359 -6.1484375 14.38818359 Z M1.8515625 20.38818359 C1.5215625 21.04818359 1.1915625 21.70818359 0.8515625 22.38818359 C5.8015625 22.38818359 10.7515625 22.38818359 15.8515625 22.38818359 C15.5215625 21.72818359 15.1915625 21.06818359 14.8515625 20.38818359 C10.5615625 20.38818359 6.2715625 20.38818359 1.8515625 20.38818359 Z M18.8515625 20.38818359 C18.8515625 21.04818359 18.8515625 21.70818359 18.8515625 22.38818359 C23.4715625 22.38818359 28.0915625 22.38818359 32.8515625 22.38818359 C32.5215625 21.72818359 32.1915625 21.06818359 31.8515625 20.38818359 C27.5615625 20.38818359 23.2715625 20.38818359 18.8515625 20.38818359 Z M-4.1484375 35.38818359 C-3.8184375 36.37818359 -3.4884375 37.36818359 -3.1484375 38.38818359 C-2.8184375 37.39818359 -2.4884375 36.40818359 -2.1484375 35.38818359 C-2.8084375 35.38818359 -3.4684375 35.38818359 -4.1484375 35.38818359 Z M36.8515625 35.38818359 C37.8515625 38.38818359 37.8515625 38.38818359 37.8515625 38.38818359 Z " fill="#CDA274" transform="translate(13.1484375,4.61181640625)"/>
</svg>
