<?xml version="1.0" encoding="UTF-8"?>
<svg version="1.1" xmlns="http://www.w3.org/2000/svg" width="60" height="50">
<path d="M0 0 C1.96289062 0.96801758 1.96289062 0.96801758 3.65625 2.14453125 C4.28660156 2.57443359 4.91695312 3.00433594 5.56640625 3.44726562 C6.20449219 3.89779297 6.84257813 4.34832031 7.5 4.8125 C8.13808594 5.25142578 8.77617188 5.69035156 9.43359375 6.14257812 C10.69222264 7.00868983 11.94674874 7.88079874 13.19677734 8.75927734 C14.91761325 9.9433131 16.67390637 11.04619555 18.4453125 12.15234375 C19.28835937 12.76207031 20.13140625 13.37179687 21 14 C21.375 16.75 21.375 16.75 21 19 C20.01 19.33 19.02 19.66 18 20 C17.67 29.57 17.34 39.14 17 49 C3.14 49 -10.72 49 -25 49 C-25.33 39.43 -25.66 29.86 -26 20 C-26.99 19.67 -27.98 19.34 -29 19 C-29.30126953 16.73779297 -29.30126953 16.73779297 -29 14 C-26.98388672 12.03955078 -26.98388672 12.03955078 -24.1796875 10.1953125 C-23.1690625 9.53015625 -22.1584375 8.865 -21.1171875 8.1796875 C-19.51230469 7.16261719 -19.51230469 7.16261719 -17.875 6.125 C-16.82828125 5.42375 -15.7815625 4.7225 -14.703125 4 C-13.68476563 3.34257813 -12.66640625 2.68515625 -11.6171875 2.0078125 C-10.68503418 1.40598145 -9.75288086 0.80415039 -8.79248047 0.18408203 C-5.33434184 -1.28225582 -3.5769057 -1.02184299 0 0 Z M-5 1 C-5.33 1.66 -5.66 2.32 -6 3 C-5.01 2.67 -4.02 2.34 -3 2 C-3.66 1.67 -4.32 1.34 -5 1 Z M-8 3 C-8.33 3.66 -8.66 4.32 -9 5 C-8.01 4.67 -7.02 4.34 -6 4 C-6.66 3.67 -7.32 3.34 -8 3 Z M-11 5 C-11.33 5.66 -11.66 6.32 -12 7 C-11.01 6.67 -10.02 6.34 -9 6 C-9.66 5.67 -10.32 5.34 -11 5 Z M-4 5 C-6.98040684 6.97730407 -9.95911365 8.95715406 -12.9375 10.9375 C-13.78763672 11.50146484 -14.63777344 12.06542969 -15.51367188 12.64648438 C-16.32255859 13.18466797 -17.13144531 13.72285156 -17.96484375 14.27734375 C-18.7137085 14.77484131 -19.46257324 15.27233887 -20.23413086 15.78491211 C-21.94155673 16.88099298 -21.94155673 16.88099298 -23 18 C-23.08775605 20.14558827 -23.10695219 22.29404421 -23.09765625 24.44140625 C-23.09515869 25.61646729 -23.09266113 26.79152832 -23.09008789 28.00219727 C-23.08098389 29.50709717 -23.07187988 31.01199707 -23.0625 32.5625 C-23.041875 37.326875 -23.02125 42.09125 -23 47 C-10.46 47 2.08 47 15 47 C17.30084877 30.53953653 17.30084877 30.53953653 13.36376953 14.515625 C8.91038576 10.39804959 3.65032667 8.04575471 -2 6 C-2.66 5.67 -3.32 5.34 -4 5 Z " fill="#D8AB7A" transform="translate(34,1)"/>
<path d="M0 0 C2.5625 1.0625 2.5625 1.0625 5.125 3.6875 C7.2282337 6.25180262 7.2282337 6.25180262 9.5 6.1875 C12.55384173 4.52176815 14.95917091 2.36999624 17.5625 0.0625 C21.50705388 2.13858099 22.47350178 2.88450357 24.5625 7.0625 C22.2525 9.7025 19.9425 12.3425 17.5625 15.0625 C18.531875 16.114375 19.50125 17.16625 20.5 18.25 C24.85168472 23.39949358 24.85168472 23.39949358 24.5625 27.0625 C22.4375 29.9375 22.4375 29.9375 19.5625 32.0625 C15.64996583 32.37138428 13.60569561 30.4132639 10.75 28 C9.67932846 27.02977525 8.61403748 26.05343014 7.5625 25.0625 C7.088125 25.68125 6.61375 26.3 6.125 26.9375 C2.58445453 29.8735621 -0.97577956 30.33794711 -5.4375 31.0625 C-6.88636775 26.59842099 -5.51488263 24.21726525 -3.4375 20.0625 C-1.75 17.625 -1.75 17.625 -0.4375 16.0625 C-0.95441406 15.61519531 -1.47132812 15.16789062 -2.00390625 14.70703125 C-7.38848707 9.76501872 -7.38848707 9.76501872 -7.625 6.375 C-5.77917341 2.78049558 -4.30357046 0.11034796 0 0 Z M-0.4375 2.0625 C-2.0875 4.0425 -3.7375 6.0225 -5.4375 8.0625 C-4.633125 8.68125 -3.82875 9.3 -3 9.9375 C-0.4375 12.0625 -0.4375 12.0625 0.5625 14.0625 C3.44825819 13.66446439 4.38439513 13.27240931 6.3125 11 C6.93125 10.0409375 6.93125 10.0409375 7.5625 9.0625 C6.2425 9.3925 4.9225 9.7225 3.5625 10.0625 C3.8925 8.7425 4.2225 7.4225 4.5625 6.0625 C2.9125 6.3925 1.2625 6.7225 -0.4375 7.0625 C0.2225 5.7425 0.8825 4.4225 1.5625 3.0625 C0.9025 2.7325 0.2425 2.4025 -0.4375 2.0625 Z M16.5625 3.0625 C17.2225 4.3825 17.8825 5.7025 18.5625 7.0625 C19.5525 7.0625 20.5425 7.0625 21.5625 7.0625 C20.19926257 5.0225281 20.19926257 5.0225281 18.5625 3.0625 C17.9025 3.0625 17.2425 3.0625 16.5625 3.0625 Z M13.5625 6.0625 C14.2225 7.3825 14.8825 8.7025 15.5625 10.0625 C16.5525 10.0625 17.5425 10.0625 18.5625 10.0625 C16.9125 8.7425 15.2625 7.4225 13.5625 6.0625 Z M6.4765625 12.875 C5.96867187 13.390625 5.46078125 13.90625 4.9375 14.4375 C4.421875 14.94539063 3.90625 15.45328125 3.375 15.9765625 C0.47198088 18.53679427 0.47198088 18.53679427 -0.4375 22.0625 C3.19311667 20.53031315 5.5488773 18.3441856 8.3125 15.5625 C9.11171875 14.7684375 9.9109375 13.974375 10.734375 13.15625 C12.78173609 11.27466538 12.78173609 11.27466538 12.5625 9.0625 C9.59293997 9.0625 8.48064857 10.88146175 6.4765625 12.875 Z M9.4765625 15.875 C8.96867187 16.390625 8.46078125 16.90625 7.9375 17.4375 C7.421875 17.94539063 6.90625 18.45328125 6.375 18.9765625 C3.47198088 21.53679427 3.47198088 21.53679427 2.5625 25.0625 C3.2225 25.0625 3.8825 25.0625 4.5625 25.0625 C6.23127721 23.37444368 6.23127721 23.37444368 7.9375 21.25 C9.79816282 18.99999143 11.43122703 17.15899715 13.7890625 15.42578125 C14.37429687 14.97589844 14.95953125 14.52601562 15.5625 14.0625 C15.5625 13.4025 15.5625 12.7425 15.5625 12.0625 C12.59293997 12.0625 11.48064857 13.88146175 9.4765625 15.875 Z M14.5625 17.0625 C12.87161778 19.04206942 11.20419528 21.04195196 9.5625 23.0625 C11.8725 25.0425 14.1825 27.0225 16.5625 29.0625 C20.68653473 27.41393175 20.68653473 27.41393175 22.5625 24.0625 C19.6370356 23.8388932 19.6370356 23.8388932 17.5625 25.0625 C17.8925 23.4125 18.2225 21.7625 18.5625 20.0625 C17.2425 20.3925 15.9225 20.7225 14.5625 21.0625 C14.8925 19.7425 15.2225 18.4225 15.5625 17.0625 C15.2325 17.0625 14.9025 17.0625 14.5625 17.0625 Z M-0.4375 25.0625 C0.5625 27.0625 0.5625 27.0625 0.5625 27.0625 Z " fill="#D8AB7A" transform="translate(21.4375,14.9375)"/>
</svg>
