<?xml version="1.0" encoding="UTF-8"?>
<svg version="1.1" xmlns="http://www.w3.org/2000/svg" width="60" height="50">
<path d="M0 0 C2.625 0.4375 2.625 0.4375 4.75366211 2.54663086 C7.878893 7.37453157 7.25563649 12.37706305 7.20141602 17.98510742 C7.18750759 19.99890176 7.22169343 22.00807921 7.25976562 24.02148438 C7.25783203 25.29443359 7.25589844 26.56738281 7.25390625 27.87890625 C7.25463135 29.04107666 7.25535645 30.20324707 7.25610352 31.40063477 C6.625 34.4375 6.625 34.4375 4.63574219 36.82299805 C0.56979635 39.00334996 -2.63539538 38.94451094 -7.17578125 38.828125 C-8.01215622 38.82246521 -8.84853119 38.81680542 -9.71025085 38.81097412 C-12.36992711 38.78866268 -15.02823405 38.73847788 -17.6875 38.6875 C-19.49542319 38.66742815 -21.30336759 38.64917858 -23.11132812 38.6328125 C-27.53349827 38.59222351 -31.95272472 38.51392915 -36.375 38.4375 C-36.375 27.8775 -36.375 17.3175 -36.375 6.4375 C-26.475 6.4375 -16.575 6.4375 -6.375 6.4375 C-5.715 5.1175 -5.055 3.7975 -4.375 2.4375 C-2.375 0.4375 -2.375 0.4375 0 0 Z M-2.375 3.4375 C-4.44223714 6.53835571 -4.61997423 7.16681681 -4.5703125 10.66796875 C-4.56386719 11.47041016 -4.55742188 12.27285156 -4.55078125 13.09960938 C-4.53402344 13.93298828 -4.51726563 14.76636719 -4.5 15.625 C-4.49097656 16.46998047 -4.48195313 17.31496094 -4.47265625 18.18554688 C-4.44910703 20.26965243 -4.41323647 22.35361217 -4.375 24.4375 C-0.415 23.9425 -0.415 23.9425 3.625 23.4375 C3.65388514 20.29168577 3.67175923 17.14590531 3.6875 14 C3.69587891 13.10216797 3.70425781 12.20433594 3.71289062 11.27929688 C3.71611328 10.42529297 3.71933594 9.57128906 3.72265625 8.69140625 C3.72789307 7.90064697 3.73312988 7.1098877 3.73852539 6.29516602 C3.82995909 4.42157311 3.82995909 4.42157311 2.625 3.4375 C0.16707971 3.10406449 0.16707971 3.10406449 -2.375 3.4375 Z M-34.375 9.4375 C-34.375 18.0175 -34.375 26.5975 -34.375 35.4375 C-29.12388804 35.46040839 -23.87294822 35.48033563 -18.62182617 35.49243164 C-16.83405979 35.49747218 -15.04629755 35.50430454 -13.25854492 35.51293945 C-10.69448832 35.5250173 -8.13048603 35.53073094 -5.56640625 35.53515625 C-4.36015343 35.54289818 -4.36015343 35.54289818 -3.12953186 35.55079651 C-1.21098285 35.55099215 0.70745368 35.49951983 2.625 35.4375 C3.82195276 34.45839415 3.82195276 34.45839415 3.7578125 32.625 C3.75394531 31.5421875 3.75394531 31.5421875 3.75 30.4375 C3.75257812 29.715625 3.75515625 28.99375 3.7578125 28.25 C3.82195276 26.41660585 3.82195276 26.41660585 2.625 25.4375 C0.95882885 25.39686168 -0.70888095 25.394779 -2.375 25.4375 C-3.365 27.9125 -3.365 27.9125 -4.375 30.4375 C-5.035 30.4375 -5.695 30.4375 -6.375 30.4375 C-6.375 23.5075 -6.375 16.5775 -6.375 9.4375 C-8.7675 9.251875 -11.16 9.06625 -13.625 8.875 C-14.35106445 8.81368896 -15.07712891 8.75237793 -15.82519531 8.68920898 C-22.26528801 8.24128262 -27.69447759 8.8807898 -34.375 9.4375 Z " fill="#CDA274" transform="translate(51.375,1.5625)"/>
<path d="M0 0 C2.66994734 0.0707514 5.33990416 0.12486523 8.01025391 0.17797852 C9.72251878 0.22059402 11.43475984 0.26417983 13.14697266 0.30883789 C14.33308136 0.33087029 14.33308136 0.33087029 15.54315186 0.35334778 C20.02094489 0.49160225 23.69207708 1.08522784 27.91259766 2.75805664 C27.91259766 3.74805664 27.91259766 4.73805664 27.91259766 5.75805664 C21.36079709 8.69215328 15.97922957 9.162891 8.85009766 9.05102539 C7.81820312 9.04678055 6.78630859 9.04253571 5.72314453 9.03816223 C2.45268799 9.02147465 -0.81713451 8.98384059 -4.08740234 8.94555664 C-6.31525798 8.930497 -8.54312335 8.91681084 -10.77099609 8.90454102 C-16.21001164 8.87160374 -21.64866167 8.82150414 -27.08740234 8.75805664 C-27.08740234 6.11805664 -27.08740234 3.47805664 -27.08740234 0.75805664 C-18.03814192 -0.49044091 -9.10581314 -0.2485855 0 0 Z M-25.08740234 2.75805664 C-25.08740234 3.74805664 -25.08740234 4.73805664 -25.08740234 5.75805664 C-23.10740234 5.75805664 -21.12740234 5.75805664 -19.08740234 5.75805664 C-19.08740234 4.76805664 -19.08740234 3.77805664 -19.08740234 2.75805664 C-21.06740234 2.75805664 -23.04740234 2.75805664 -25.08740234 2.75805664 Z M-17.08740234 2.75805664 C-17.08740234 3.74805664 -17.08740234 4.73805664 -17.08740234 5.75805664 C-5.53740234 5.75805664 6.01259766 5.75805664 17.91259766 5.75805664 C17.91259766 4.76805664 17.91259766 3.77805664 17.91259766 2.75805664 C6.36259766 2.75805664 -5.18740234 2.75805664 -17.08740234 2.75805664 Z " fill="#CDA274" transform="translate(30.08740234375,40.241943359375)"/>
<path d="M0 0 C3.63 0 7.26 0 11 0 C11.02465504 4.39656173 11.04283842 8.7930872 11.05493164 13.18969727 C11.05997121 14.68644918 11.06680287 16.18319616 11.07543945 17.67993164 C11.08752159 19.82699807 11.09323191 21.97399962 11.09765625 24.12109375 C11.10289307 25.4145874 11.10812988 26.70808105 11.11352539 28.04077148 C11 31 11 31 10 32 C8.50261876 32.0979057 7.00057108 32.12974864 5.5 32.125 C4.6853125 32.12757812 3.870625 32.13015625 3.03125 32.1328125 C1 32 1 32 0 31 C-0.08790975 28.70848583 -0.10694038 26.41427476 -0.09765625 24.12109375 C-0.0962413 23.4344313 -0.09482635 22.74776886 -0.09336853 22.04029846 C-0.08775479 19.83932199 -0.07520007 17.63844591 -0.0625 15.4375 C-0.05748676 13.94856917 -0.05292355 12.45963676 -0.04882812 10.97070312 C-0.03778093 7.31376925 -0.02050713 3.65689442 0 0 Z M6 3 C5.11290285 8.31554245 4.84698139 13.42825792 4.875 18.8125 C4.87113281 19.57498047 4.86726562 20.33746094 4.86328125 21.12304688 C4.77808847 25.19267358 4.77808847 25.19267358 6 29 C6.66 29 7.32 29 8 29 C8 20.42 8 11.84 8 3 C7.34 3 6.68 3 6 3 Z " fill="#CDA274" transform="translate(3,8)"/>
<path d="M0 0 C5.05225197 2.33794956 9.15980484 5.11599195 12 10 C12.40776736 15.37709224 11.78048121 19.53663151 11 25 C4.73 25 -1.54 25 -8 25 C-9.36421031 22.27157939 -8.87807211 20.39046682 -8.5625 17.375 C-8.40974609 15.87066406 -8.40974609 15.87066406 -8.25390625 14.3359375 C-8.17011719 13.56507812 -8.08632813 12.79421875 -8 12 C-8.66 12 -9.32 12 -10 12 C-8.52278578 8.54798361 -6.56205999 6.35038064 -3.875 3.75 C-3.15054687 3.04359375 -2.42609375 2.3371875 -1.6796875 1.609375 C-1.12539063 1.07828125 -0.57109375 0.5471875 0 0 Z M0 3 C-1.57840572 4.55705194 -1.57840572 4.55705194 -3.125 6.5 C-4.07375 7.655 -5.0225 8.81 -6 10 C-1.38 10 3.24 10 8 10 C7.05125 8.845 6.1025 7.69 5.125 6.5 C4.59132813 5.8503125 4.05765625 5.200625 3.5078125 4.53125 C3.01023437 4.0259375 2.51265625 3.520625 2 3 C1.34 3 0.68 3 0 3 Z M-6 13 C-6 16.3 -6 19.6 -6 23 C-5.01 23 -4.02 23 -3 23 C-2.67 21.02 -2.34 19.04 -2 17 C0.64 17 3.28 17 6 17 C5.67 18.98 5.34 20.96 5 23 C5.99 23 6.98 23 8 23 C8 19.7 8 16.4 8 13 C3.38 13 -1.24 13 -6 13 Z M-1 19 C-1 20.32 -1 21.64 -1 23 C0.32 23 1.64 23 3 23 C3 21.68 3 20.36 3 19 C1.68 19 0.36 19 -1 19 Z " fill="#CDA274" transform="translate(30,11)"/>
</svg>
