<?xml version="1.0" encoding="UTF-8"?>
<svg version="1.1" xmlns="http://www.w3.org/2000/svg" width="60" height="50">
<path d="M0 0 C2 3 2 3 2 6 C11.9 5.67 21.8 5.34 32 5 C32.66 3.35 33.32 1.7 34 0 C40.50308895 -0.36809937 40.50308895 -0.36809937 42.70620728 1.26391602 C45.00739623 4.35178103 44.42492598 8.22964058 44.3984375 11.9375 C44.40130768 12.81398193 44.40417786 13.69046387 44.40713501 14.59350586 C44.40917598 16.44613288 44.40364378 18.29878142 44.39111328 20.15136719 C44.37505984 22.98942179 44.39096055 25.82605227 44.41015625 28.6640625 C44.40817382 30.46354481 44.40433016 32.26302624 44.3984375 34.0625 C44.40754654 35.33758423 44.40754654 35.33758423 44.4168396 36.63842773 C44.34658266 42.51457111 44.34658266 42.51457111 42.7694397 44.72354126 C40.48067872 46.37463396 39.11021216 46.38017229 36.30078125 46.38818359 C34.87415161 46.40236832 34.87415161 46.40236832 33.41870117 46.4168396 C32.39365479 46.41076691 31.3686084 46.40469421 30.3125 46.3984375 C29.25844971 46.40130768 28.20439941 46.40417786 27.1184082 46.40713501 C24.88915469 46.40917713 22.65988333 46.40363698 20.43066406 46.39111328 C17.01326532 46.37506231 13.59704935 46.39095759 10.1796875 46.41015625 C8.01562238 46.40817385 5.851558 46.40433023 3.6875 46.3984375 C2.66245361 46.40451019 1.63740723 46.41058289 0.58129883 46.4168396 C-0.3697876 46.40738312 -1.32087402 46.39792664 -2.30078125 46.38818359 C-3.13778564 46.38579681 -3.97479004 46.38341003 -4.8371582 46.38095093 C-7.53551417 45.90567751 -8.41698704 45.21719176 -10 43 C-10.29847993 39.95137475 -10.42021845 37.11139905 -10.3984375 34.0625 C-10.40130768 33.18601807 -10.40417786 32.30953613 -10.40713501 31.40649414 C-10.40917598 29.55386712 -10.40364378 27.70121858 -10.39111328 25.84863281 C-10.37505984 23.01057821 -10.39096055 20.17394773 -10.41015625 17.3359375 C-10.40817382 15.53645519 -10.40433016 13.73697376 -10.3984375 11.9375 C-10.40451019 11.08744385 -10.41058289 10.2373877 -10.4168396 9.36157227 C-10.34626344 3.45872944 -10.34626344 3.45872944 -8.69839478 1.27563477 C-5.89127077 -0.83274723 -3.36853405 -0.36747644 0 0 Z M-7 3 C-7.33 13.89 -7.66 24.78 -8 36 C-5.69 36 -3.38 36 -1 36 C-1 25.11 -1 14.22 -1 3 C-2.98 3 -4.96 3 -7 3 Z M35 3 C35 13.89 35 24.78 35 36 C37.31 36 39.62 36 42 36 C42.02469081 31.6217488 42.04285557 27.24353433 42.05493164 22.86523438 C42.05996514 21.37531834 42.06679242 19.88540726 42.07543945 18.39550781 C42.08754805 16.25584696 42.09323807 14.11625132 42.09765625 11.9765625 C42.10289307 10.68830566 42.10812988 9.40004883 42.11352539 8.07275391 C42.21542631 5.08594772 42.21542631 5.08594772 41 3 C39.02 3 37.04 3 35 3 Z M2 9 C1.7106993 17.84053221 1.7106993 17.84053221 1.43188477 26.68139648 C1.39377686 27.77524658 1.35566895 28.86909668 1.31640625 29.99609375 C1.26141968 31.68496704 1.26141968 31.68496704 1.20532227 33.40795898 C1 36 1 36 0 37 C-2.32817964 37.36760731 -4.6618385 37.70241581 -7 38 C-7 39.65 -7 41.3 -7 43 C8.84 43 24.68 43 41 43 C41.33 42.01 41.66 41.02 42 40 C41.505 39.01 41.505 39.01 41 38 C39.845 37.835 38.69 37.67 37.5 37.5 C36.345 37.335 35.19 37.17 34 37 C32.64299353 34.28598706 32.8876139 32.15153684 32.90234375 29.1171875 C32.90484131 28.06644043 32.90733887 27.01569336 32.90991211 25.93310547 C32.91901611 24.59393066 32.92812012 23.25475586 32.9375 21.875 C32.9684375 15.501875 32.9684375 15.501875 33 9 C22.77 9 12.54 9 2 9 Z " fill="#CDA274" transform="translate(13,2)"/>
<path d="M0 0 C5.26139348 1.82675582 9.55422754 5.95333199 13.44140625 9.84765625 C13.44140625 10.50765625 13.44140625 11.16765625 13.44140625 11.84765625 C12.45140625 11.84765625 11.46140625 11.84765625 10.44140625 11.84765625 C10.45300781 12.55792969 10.46460937 13.26820312 10.4765625 14 C10.48558594 14.91910156 10.49460937 15.83820312 10.50390625 16.78515625 C10.51550781 17.70167969 10.52710937 18.61820313 10.5390625 19.5625 C10.44140625 21.84765625 10.44140625 21.84765625 9.44140625 22.84765625 C8.09873212 22.93397499 6.75166303 22.95472098 5.40625 22.9453125 C4.59736328 22.94208984 3.78847656 22.93886719 2.95507812 22.93554688 C2.10494141 22.92716797 1.25480469 22.91878906 0.37890625 22.91015625 C-0.47509766 22.90564453 -1.32910156 22.90113281 -2.20898438 22.89648438 C-4.32555038 22.88465998 -6.4420806 22.86672394 -8.55859375 22.84765625 C-8.88859375 19.21765625 -9.21859375 15.58765625 -9.55859375 11.84765625 C-10.54859375 11.51765625 -11.53859375 11.18765625 -12.55859375 10.84765625 C-11.73359375 10.12578125 -10.90859375 9.40390625 -10.05859375 8.66015625 C-7.31451569 6.11848259 -7.31451569 6.11848259 -7.24609375 3.03515625 C-7.34921875 2.31328125 -7.45234375 1.59140625 -7.55859375 0.84765625 C-4.96535126 -0.448965 -2.839968 -0.3713402 0 0 Z M-4.55859375 4.84765625 C-4.22859375 5.83765625 -3.89859375 6.82765625 -3.55859375 7.84765625 C-3.55859375 6.85765625 -3.55859375 5.86765625 -3.55859375 4.84765625 C-3.88859375 4.84765625 -4.21859375 4.84765625 -4.55859375 4.84765625 Z M-5.328125 10.13671875 C-7.70435987 13.44081675 -6.90831816 16.94240034 -6.55859375 20.84765625 C-1.93859375 20.84765625 2.68140625 20.84765625 7.44140625 20.84765625 C8.09577866 14.32416244 8.09577866 14.32416244 5.12890625 8.78515625 C0.80048008 5.66466296 -1.42321525 6.80067239 -5.328125 10.13671875 Z " fill="#CDA274" transform="translate(29.55859375,16.15234375)"/>
</svg>
