<?xml version="1.0" encoding="UTF-8"?>
<svg version="1.1" xmlns="http://www.w3.org/2000/svg" width="60" height="50">
<path d="M0 0 C2.625 1.0625 2.625 1.0625 3.62109375 2.66796875 C4.98891231 6.05151993 5.63806218 8.57444963 5.5390625 12.2734375 C5.66086791 17.64394871 7.30260428 22.30846422 8.93554688 27.390625 C10.45493425 32.42386319 10.76894128 35.91133925 9.625 41.0625 C8.965 41.0625 8.305 41.0625 7.625 41.0625 C4.77515702 36.40775646 2.9226183 32.36110806 1.625 27.0625 C0.635 27.3925 -0.355 27.7225 -1.375 28.0625 C-1.375 27.4025 -1.375 26.7425 -1.375 26.0625 C-2.035 26.0625 -2.695 26.0625 -3.375 26.0625 C-3.49875 27.279375 -3.6225 28.49625 -3.75 29.75 C-4.16391306 33.12729059 -4.92073451 35.96006695 -6.375 39.0625 C-3.735 39.7225 -1.095 40.3825 1.625 41.0625 C1.625 41.7225 1.625 42.3825 1.625 43.0625 C-4.30894361 43.5569953 -8.4033878 42.38374196 -13.375 39.0625 C-14.695 37.7425 -16.015 36.4225 -17.375 35.0625 C-17.705 39.0225 -18.035 42.9825 -18.375 47.0625 C-4.185 46.7325 10.005 46.4025 24.625 46.0625 C24.955 44.4125 25.285 42.7625 25.625 41.0625 C23.975 41.0625 22.325 41.0625 20.625 41.0625 C19.965 42.3825 19.305 43.7025 18.625 45.0625 C17.965 45.0625 17.305 45.0625 16.625 45.0625 C16.625 34.5025 16.625 23.9425 16.625 13.0625 C13.325 13.0625 10.025 13.0625 6.625 13.0625 C6.625 12.0725 6.625 11.0825 6.625 10.0625 C9.925 10.0625 13.225 10.0625 16.625 10.0625 C17.285 8.7425 17.945 7.4225 18.625 6.0625 C18.955 5.7325 19.285 5.4025 19.625 5.0625 C23.0625 5.3125 23.0625 5.3125 26.625 6.0625 C29.18989932 9.90984898 28.93082459 13.10073325 28.92578125 17.5625 C28.93006638 18.39458984 28.9343515 19.22667969 28.93876648 20.08398438 C28.94450693 21.84243866 28.94501213 23.60091669 28.94067383 25.359375 C28.93751175 28.05249399 28.96098298 30.74451668 28.98632812 33.4375 C28.98860091 35.14583195 28.98930471 36.85416685 28.98828125 38.5625 C28.997491 39.36880859 29.00670074 40.17511719 29.01618958 41.00585938 C28.96992983 46.58245892 28.96992983 46.58245892 27.39266968 48.77754211 C25.10822351 50.43815617 23.77966799 50.42567427 20.9699707 50.40307617 C20.02922195 50.40284958 19.08847321 50.40262299 18.11921692 50.40238953 C16.60034126 50.37916374 16.60034126 50.37916374 15.05078125 50.35546875 C14.01181198 50.35122391 12.97284271 50.34697906 11.90238953 50.34260559 C8.58049724 50.32579849 5.25920925 50.28814196 1.9375 50.25 C-0.31314229 50.23495582 -2.56379407 50.22126695 -4.81445312 50.20898438 C-10.33505613 50.1784388 -15.85435082 50.11971978 -21.375 50.0625 C-21.375 36.8625 -21.375 23.6625 -21.375 10.0625 C-16.755 10.0625 -12.135 10.0625 -7.375 10.0625 C-7.375 11.0525 -7.375 12.0425 -7.375 13.0625 C-11.005 13.0625 -14.635 13.0625 -18.375 13.0625 C-18.56330948 25.63688133 -18.56330948 25.63688133 -12.375 36.0625 C-10.69220111 32.69690221 -9.84341794 29.04715665 -8.8125 25.4375 C-8.57853516 24.65503906 -8.34457031 23.87257813 -8.10351562 23.06640625 C-7.00545411 19.20558355 -6.23833478 15.75043432 -6.3125 11.72265625 C-6.39050279 7.15461782 -5.41065937 5.05239237 -3.375 1.0625 C-2.375 0.0625 -2.375 0.0625 0 0 Z M-1.375 3.0625 C-1.375 3.7225 -1.375 4.3825 -1.375 5.0625 C-0.715 5.0625 -0.055 5.0625 0.625 5.0625 C0.625 4.4025 0.625 3.7425 0.625 3.0625 C-0.035 3.0625 -0.695 3.0625 -1.375 3.0625 Z M19.625 8.0625 C18.18990779 10.93268441 18.51341494 13.39793723 18.52734375 16.6015625 C18.53056641 17.90351563 18.53378906 19.20546875 18.53710938 20.546875 C18.54546534 21.92708399 18.55393029 23.30729232 18.5625 24.6875 C18.56751499 26.07551926 18.5720779 27.46354022 18.57617188 28.8515625 C18.58799024 32.25525132 18.60446566 35.65885439 18.625 39.0625 C22.09 38.5675 22.09 38.5675 25.625 38.0625 C25.64965746 33.9507744 25.66783959 29.83907722 25.67993164 25.72729492 C25.6849708 24.32754772 25.69180216 22.9278058 25.70043945 21.52807617 C25.7125232 19.52004223 25.71769807 17.51197043 25.72265625 15.50390625 C25.72789307 14.29420166 25.73312988 13.08449707 25.73852539 11.83813477 C25.94275285 9.15437983 25.94275285 9.15437983 24.625 8.0625 C22.95882885 8.02186168 21.29111905 8.019779 19.625 8.0625 Z M-4.375 10.0625 C-3.375 13.0625 -3.375 13.0625 -3.375 13.0625 Z M2.625 10.0625 C3.625 12.0625 3.625 12.0625 3.625 12.0625 Z M1.625 12.0625 C2.625 14.0625 2.625 14.0625 2.625 14.0625 Z M-2.375 14.0625 C1.625 15.0625 1.625 15.0625 1.625 15.0625 Z M-4.375 17.0625 C-4.045 18.3825 -3.715 19.7025 -3.375 21.0625 C-3.045 19.7425 -2.715 18.4225 -2.375 17.0625 C-3.035 17.0625 -3.695 17.0625 -4.375 17.0625 Z M-1.375 18.0625 C-1.375 19.3825 -1.375 20.7025 -1.375 22.0625 C-0.715 22.0625 -0.055 22.0625 0.625 22.0625 C0.295 20.7425 -0.035 19.4225 -0.375 18.0625 C-0.705 18.0625 -1.035 18.0625 -1.375 18.0625 Z M2.625 18.0625 C3.625 21.0625 3.625 21.0625 3.625 21.0625 Z M-5.375 21.0625 C-4.375 25.0625 -4.375 25.0625 -4.375 25.0625 Z M3.625 21.0625 C4.625 25.0625 4.625 25.0625 4.625 25.0625 Z M-6.375 25.0625 C-5.375 29.0625 -5.375 29.0625 -5.375 29.0625 Z M4.625 25.0625 C5.625 29.0625 5.625 29.0625 5.625 29.0625 Z M-7.375 29.0625 C-6.375 32.0625 -6.375 32.0625 -6.375 32.0625 Z M5.625 29.0625 C6.625 32.0625 6.625 32.0625 6.625 32.0625 Z M-8.375 32.0625 C-7.375 35.0625 -7.375 35.0625 -7.375 35.0625 Z M6.625 33.0625 C7.625 35.0625 7.625 35.0625 7.625 35.0625 Z " fill="#CDA274" transform="translate(26.375,-0.0625)"/>
</svg>
