<?xml version="1.0" encoding="UTF-8"?>
<svg version="1.1" xmlns="http://www.w3.org/2000/svg" width="60" height="50">
<path d="M0 0 C2.27864583 0.06510417 4.55729167 0.13020833 6.8359375 0.1953125 C6.8359375 3.4953125 6.8359375 6.7953125 6.8359375 10.1953125 C10.27532878 10.13544494 13.71030707 10.04847884 17.1484375 9.9453125 C18.12490234 9.93113281 19.10136719 9.91695312 20.10742188 9.90234375 C21.04521484 9.87011719 21.98300781 9.83789062 22.94921875 9.8046875 C23.81329346 9.78374023 24.67736816 9.76279297 25.56762695 9.74121094 C28.5408465 9.02566698 29.17236611 7.66866305 30.8359375 5.1953125 C31.4959375 5.1953125 32.1559375 5.1953125 32.8359375 5.1953125 C32.8359375 4.5353125 32.8359375 3.8753125 32.8359375 3.1953125 C33.4959375 3.1953125 34.1559375 3.1953125 34.8359375 3.1953125 C34.8359375 2.5353125 34.8359375 1.8753125 34.8359375 1.1953125 C38.2109375 0.5703125 38.2109375 0.5703125 41.8359375 0.1953125 C43.8359375 2.1953125 43.8359375 2.1953125 44.0859375 4.6328125 C43.8359375 7.1953125 43.8359375 7.1953125 41.8359375 10.1953125 C42.4959375 10.5253125 43.1559375 10.8553125 43.8359375 11.1953125 C43.8359375 23.0753125 43.8359375 34.9553125 43.8359375 47.1953125 C37.32127715 47.24115452 30.80717344 47.28100073 24.29248047 47.30517578 C22.07501329 47.31525075 19.85755945 47.32891109 17.64013672 47.34619141 C14.45797438 47.37037413 11.27598726 47.38178047 8.09375 47.390625 C6.59994308 47.40610886 6.59994308 47.40610886 5.07595825 47.42190552 C3.69475296 47.42213211 3.69475296 47.42213211 2.28564453 47.42236328 C1.4729007 47.4268045 0.66015686 47.43124573 -0.17721558 47.43582153 C-2.1640625 47.1953125 -2.1640625 47.1953125 -4.1640625 45.1953125 C-4.41802979 43.33581543 -4.41802979 43.33581543 -4.42285156 41.05273438 C-4.42915588 40.19844849 -4.43546021 39.3441626 -4.44195557 38.46398926 C-4.4379071 37.54001343 -4.43385864 36.6160376 -4.4296875 35.6640625 C-4.43160095 34.71720581 -4.4335144 33.77034912 -4.43548584 32.7947998 C-4.43684823 30.79076878 -4.43314806 28.78672896 -4.42480469 26.78271484 C-4.41410597 23.70780697 -4.42469822 20.63348336 -4.4375 17.55859375 C-4.43617841 15.61458204 -4.43361604 13.67057069 -4.4296875 11.7265625 C-4.43576019 10.34059875 -4.43576019 10.34059875 -4.44195557 8.92663574 C-4.43565125 8.07234985 -4.42934692 7.21806396 -4.42285156 6.33789062 C-4.42126038 5.58447388 -4.41966919 4.83105713 -4.41802979 4.05480957 C-4.01955798 1.13727964 -2.87347854 0.25933922 0 0 Z M-0.83325195 3.2668457 C-2.83466195 6.16707274 -2.50120455 8.56109048 -2.45703125 12.05078125 C-2.45278641 12.71241776 -2.44854156 13.37405426 -2.44416809 14.05574036 C-2.42739943 16.1651816 -2.38975349 18.27366096 -2.3515625 20.3828125 C-2.33651318 21.81443931 -2.3228252 23.24608112 -2.31054688 24.67773438 C-2.2775028 28.18390538 -2.22573417 31.68951504 -2.1640625 35.1953125 C-0.1840625 34.5353125 1.7959375 33.8753125 3.8359375 33.1953125 C3.8359375 22.9653125 3.8359375 12.7353125 3.8359375 2.1953125 C0.92611289 1.92520437 0.92611289 1.92520437 -0.83325195 3.2668457 Z M38.8359375 2.1953125 C39.1659375 3.1853125 39.4959375 4.1753125 39.8359375 5.1953125 C40.4959375 4.8653125 41.1559375 4.5353125 41.8359375 4.1953125 C40.8459375 3.5353125 39.8559375 2.8753125 38.8359375 2.1953125 Z M31.328125 9.5078125 C30.79445312 10.0646875 30.26078125 10.6215625 29.7109375 11.1953125 C29.17210937 11.7521875 28.63328125 12.3090625 28.078125 12.8828125 C27.66820313 13.3159375 27.25828125 13.7490625 26.8359375 14.1953125 C27.1659375 15.1853125 27.4959375 16.1753125 27.8359375 17.1953125 C30.8938895 15.45971812 33.46973739 13.81058631 35.8359375 11.1953125 C35.5059375 10.2053125 35.1759375 9.2153125 34.8359375 8.1953125 C32.75418738 7.97645728 32.75418738 7.97645728 31.328125 9.5078125 Z M6.8359375 14.1953125 C6.8359375 16.1753125 6.8359375 18.1553125 6.8359375 20.1953125 C11.4559375 19.8653125 16.0759375 19.5353125 20.8359375 19.1953125 C21.1659375 17.5453125 21.4959375 15.8953125 21.8359375 14.1953125 C16.8859375 14.1953125 11.9359375 14.1953125 6.8359375 14.1953125 Z M33.9921875 15.69140625 C33.17234375 16.65240234 33.17234375 16.65240234 32.3359375 17.6328125 C27.06242447 22.74152825 20.83383211 22.26411203 13.8359375 22.1953125 C13.8359375 24.5053125 13.8359375 26.8153125 13.8359375 29.1953125 C19.4459375 29.1953125 25.0559375 29.1953125 30.8359375 29.1953125 C31.4959375 27.8753125 32.1559375 26.5553125 32.8359375 25.1953125 C33.4959375 25.1953125 34.1559375 25.1953125 34.8359375 25.1953125 C34.5059375 30.1453125 34.1759375 35.0953125 33.8359375 40.1953125 C27.5659375 40.1953125 21.2959375 40.1953125 14.8359375 40.1953125 C14.8359375 39.2053125 14.8359375 38.2153125 14.8359375 37.1953125 C16.8159375 37.1953125 18.7959375 37.1953125 20.8359375 37.1953125 C20.8359375 35.5453125 20.8359375 33.8953125 20.8359375 32.1953125 C18.5259375 32.1953125 16.2159375 32.1953125 13.8359375 32.1953125 C13.8359375 36.1553125 13.8359375 40.1153125 13.8359375 44.1953125 C12.8459375 44.1953125 11.8559375 44.1953125 10.8359375 44.1953125 C10.8359375 36.9353125 10.8359375 29.6753125 10.8359375 22.1953125 C9.5159375 21.8653125 8.1959375 21.5353125 6.8359375 21.1953125 C6.8359375 26.1453125 6.8359375 31.0953125 6.8359375 36.1953125 C4.5259375 36.5253125 2.2159375 36.8553125 -0.1640625 37.1953125 C-0.8240625 37.8553125 -1.4840625 38.5153125 -2.1640625 39.1953125 C-1.99898604 41.77071463 -1.99898604 41.77071463 -1.1640625 44.1953125 C2.27198515 45.91333632 6.22032646 45.3149743 10 45.29296875 C10.90720795 45.2915538 11.81441589 45.29013885 12.74911499 45.28868103 C15.65308905 45.28307346 18.55698665 45.27051968 21.4609375 45.2578125 C23.42708222 45.25279848 25.39322815 45.2482354 27.359375 45.24414062 C32.18494916 45.23395149 37.0103575 45.21437757 41.8359375 45.1953125 C41.8359375 34.9653125 41.8359375 24.7353125 41.8359375 14.1953125 C36.21672286 13.56521549 36.21672286 13.56521549 33.9921875 15.69140625 Z M23.8359375 32.1953125 C23.8359375 33.8453125 23.8359375 35.4953125 23.8359375 37.1953125 C26.1459375 37.1953125 28.4559375 37.1953125 30.8359375 37.1953125 C30.8359375 35.5453125 30.8359375 33.8953125 30.8359375 32.1953125 C28.5259375 32.1953125 26.2159375 32.1953125 23.8359375 32.1953125 Z " fill="#CDA274" transform="translate(10.1640625,1.8046875)"/>
</svg>
